HIERARCHY
ROOT Hips
{
 OFFSET 0.000000 0.000000 0.000000
 CHANNELS 6 Xposition Yposition Zposition Yrotation Xrotation Zrotation
 JOINT Chest
 {
  OFFSET 0.000000 12.953391 -0.028419
  CHANNELS 3 Yrotation Xrotation Zrotation
  JOINT Chest2
  {
   OFFSET 0.000000 10.280254 0.051622
   CHANNELS 3 Yrotation Xrotation Zrotation
   JOINT Chest3
   {
    OFFSET 0.000000 9.287180 0.000000
    CHANNELS 3 Yrotation Xrotation Zrotation
    JOINT Chest4
    {
     OFFSET 0.000000 9.287180 0.000000
     CHANNELS 3 Yrotation Xrotation Zrotation
     JOINT Neck
     {
      OFFSET 0.000000 13.296264 0.000000
      CHANNELS 3 Yrotation Xrotation Zrotation
      JOINT Head
      {
       OFFSET 0.000000 8.959264 0.099003
       CHANNELS 3 Yrotation Xrotation Zrotation
       End Site
       {
        OFFSET 0.000000 17.121337 0.039303
       }
      }
     }
     JOINT RightCollar
     {
      OFFSET -3.193511 7.451388 0.000000
      CHANNELS 3 Yrotation Xrotation Zrotation
      JOINT RightShoulder
      {
       OFFSET -15.792092 0.000000 0.000000
       CHANNELS 3 Yrotation Xrotation Zrotation
       JOINT RightElbow
       {
        OFFSET -31.151839 0.000000 0.000000
        CHANNELS 3 Yrotation Xrotation Zrotation
        JOINT RightWrist
        {
         OFFSET -25.536298 0.000000 0.002321
         CHANNELS 3 Yrotation Xrotation Zrotation
         End Site
         {
          OFFSET -19.133213 0.000000 0.000000
         }
        }
       }
      }
     }
     JOINT LeftCollar
     {
      OFFSET 3.193511 7.451388 0.000000
      CHANNELS 3 Yrotation Xrotation Zrotation
      JOINT LeftShoulder
      {
       OFFSET 15.792092 0.000000 0.000000
       CHANNELS 3 Yrotation Xrotation Zrotation
       JOINT LeftElbow
       {
        OFFSET 31.151839 0.000000 0.000000
        CHANNELS 3 Yrotation Xrotation Zrotation
        JOINT LeftWrist
        {
         OFFSET 25.536298 0.000000 0.002321
         CHANNELS 3 Yrotation Xrotation Zrotation
         End Site
         {
          OFFSET 19.133213 0.000000 0.000000
         }
        }
       }
      }
     }
    }
   }
  }
 }
 JOINT RightHip
 {
  OFFSET -10.745749 0.139252 0.014209
  CHANNELS 3 Yrotation Xrotation Zrotation
  JOINT RightKnee
  {
   OFFSET 0.000000 -43.743899 -0.006071
   CHANNELS 3 Yrotation Xrotation Zrotation
   JOINT RightAnkle
   {
    OFFSET 0.000000 -43.214199 0.089931
    CHANNELS 3 Yrotation Xrotation Zrotation
    JOINT RightToe
    {
     OFFSET 0.000000 -9.699830 19.151588
     CHANNELS 3 Yrotation Xrotation Zrotation
     End Site
     {
      OFFSET 0.000000 -1.292898 4.893873
     }
    }
   }
  }
 }
 JOINT LeftHip
 {
  OFFSET 10.745749 0.139252 0.014209
  CHANNELS 3 Yrotation Xrotation Zrotation
  JOINT LeftKnee
  {
   OFFSET 0.000000 -43.743899 -0.006071
   CHANNELS 3 Yrotation Xrotation Zrotation
   JOINT LeftAnkle
   {
    OFFSET 0.000000 -43.214199 0.089931
    CHANNELS 3 Yrotation Xrotation Zrotation
    JOINT LeftToe
    {
     OFFSET 0.000000 -9.699830 19.151588
     CHANNELS 3 Yrotation Xrotation Zrotation
     End Site
     {
      OFFSET 0.000000 -1.292898 4.893873
     }
    }
   }
  }
 }
}
MOTION
Frames: 7
Frame Time: 0.016667
-19.163649 99.299303 49.356272 63.888255 -10.159522 6.932044 -0.603551 10.797891 6.158113 -0.410922 4.790804 2.738510 -0.410922 4.790804 2.738510 -0.329531 3.591350 2.055913 -16.021258 26.960921 2.817842 -29.150218 15.786195 8.159471 10.506683 2.050670 3.891518 7.259612 -17.773170 53.619602 2.392226 16.676283 -8.581951 12.556139 21.804486 -39.176555 -3.988863 -1.369946 -13.196196 4.230826 15.234595 -48.092182 -111.315359 30.922725 -62.617304 -9.026679 11.923253 30.996417 -9.509784 11.960913 -2.372434 -1.922677 1.502557 -0.385057 -12.263607 -5.525298 -3.738976 0.000000 0.000000 0.000000 22.441370 -0.339896 9.275080 -0.500569 20.252560 -1.043526 -3.713655 -0.076401 -9.718806 0.000000 0.000000 0.000000
-19.194258 99.294805 49.142751 64.051167 -10.041730 6.907830 -0.617286 10.749880 6.138767 -0.415907 4.769312 2.730314 -0.415904 4.769312 2.730312 -0.333104 3.575214 2.049801 -16.011500 26.974093 2.844557 -29.137027 15.815129 8.201912 10.444498 2.093049 4.017065 7.264879 -17.754708 53.495542 2.390343 16.634066 -8.594209 12.591919 21.782088 -39.177737 -4.050652 -1.253340 -13.008028 4.215693 15.267423 -48.164056 -111.368522 30.931539 -62.656410 -9.008435 11.938631 31.021879 -9.385070 11.774818 -2.443910 -2.423563 1.432670 -0.259056 -12.009686 -5.364761 -3.825400 0.000000 -0.000000 0.000000 22.687178 -0.487312 9.159438 -0.409194 20.125608 -0.875281 -4.390937 -0.521665 -9.864489 -0.000000 0.000000 -0.000000
-19.224866 99.290307 48.929230 64.213969 -9.923871 6.883966 -0.631063 10.701911 6.119337 -0.420922 4.747840 2.722084 -0.420920 4.747840 2.722082 -0.336706 3.559092 2.043667 -16.001688 26.987230 2.871301 -29.123760 15.844027 8.244384 10.382619 2.135473 4.142710 7.269847 -17.736249 53.371563 2.388435 16.591827 -8.606386 12.627686 21.759671 -39.178925 -4.111715 -1.136712 -12.819776 4.200282 15.300312 -48.235924 -111.421669 30.940469 -62.695501 -8.990174 11.953951 31.047378 -9.260592 11.589011 -2.516566 -2.924927 1.364567 -0.133363 -11.755913 -5.204135 -3.911201 0.000000 0.000000 0.000000 22.933191 -0.633692 9.042262 -0.318636 19.997304 -0.708336 -5.067186 -0.967040 -10.009430 0.000000 0.000000 0.000000
-19.262536 99.290942 48.697931 64.371448 -9.801670 6.862034 -0.638934 10.664269 6.101924 -0.423514 4.731034 2.714598 -0.423514 4.731034 2.714598 -0.338519 3.546481 2.038076 -15.988616 26.994197 2.903048 -29.106166 15.862306 8.296369 10.334830 2.170335 4.265947 7.301199 -17.720765 53.215448 2.365131 16.519623 -8.623114 12.662477 21.734294 -39.158883 -4.173731 -1.023950 -12.641328 4.168095 15.335070 -48.302531 -111.451178 30.934373 -62.714600 -8.958817 11.972299 31.069081 -9.154094 11.392456 -2.595417 -3.359324 1.296531 -0.027979 -11.552750 -5.035199 -3.991856 0.000000 0.000000 0.000000 23.155827 -0.790370 8.913758 -0.227482 19.996862 -0.533981 -5.663454 -1.502479 -10.025762 0.000000 0.000000 0.000000
-19.311685 99.299374 48.441517 64.516449 -9.669542 6.845017 -0.636442 10.643532 6.087957 -0.421820 4.721872 2.708381 -0.421821 4.721873 2.708382 -0.337163 3.539621 2.033403 -15.969870 26.988628 2.944498 -29.081426 15.859089 8.367051 10.308626 2.189580 4.387337 7.380147 -17.705494 53.005297 2.305957 16.400674 -8.645822 12.696971 21.705138 -39.107476 -4.241139 -0.917695 -12.477659 4.111396 15.373434 -48.361802 -111.442271 30.905063 -62.702218 -8.907676 11.994187 31.085570 -9.058566 11.175116 -2.678305 -3.698670 1.230974 0.042141 -11.432028 -4.856454 -4.067296 0.000000 -0.000000 0.000000 23.352241 -0.970366 8.766423 -0.147674 20.185506 -0.350562 -6.251497 -2.236007 -9.831697 -0.000000 0.000000 0.000000
-19.367896 99.312939 48.167325 64.656141 -9.533102 6.829927 -0.628037 10.633106 6.076039 -0.417690 4.717365 2.702923 -0.417691 4.717365 2.702924 -0.334005 3.536262 2.029278 -15.947870 26.976839 2.990889 -29.052426 15.845173 8.447183 10.296584 2.201066 4.506284 7.485032 -17.692454 52.762886 2.225345 16.251832 -8.672449 12.730582 21.673175 -39.034791 -4.309404 -0.815293 -12.323666 4.037955 15.413524 -48.415574 -111.410026 30.860444 -62.670099 -8.843350 12.018923 31.098464 -8.980927 10.947008 -2.767200 -3.970883 1.164432 0.091925 -11.361632 -4.669563 -4.138049 0.000000 0.000000 0.000000 23.525471 -1.160699 8.607898 -0.064095 20.502125 -0.155788 -6.764479 -3.058009 -9.504313 0.000000 0.000000 0.000000
-19.424986 99.328771 47.879592 64.806784 -9.404856 6.809414 -0.621137 10.623515 6.064037 -0.414235 4.713209 2.697461 -0.414235 4.713209 2.697461 -0.331353 3.533163 2.025155 -15.926639 26.971719 3.033039 -29.023408 15.842501 8.518641 10.290125 2.221010 4.618595 7.578343 -17.691947 52.521511 2.145216 16.093600 -8.702502 12.760422 21.638168 -38.949915 -4.366748 -0.712765 -12.174121 3.954582 15.451711 -48.464434 -111.375564 30.809577 -62.633104 -8.772674 12.047805 31.108511 -8.959695 10.727175 -2.872788 -4.192627 1.086187 0.146322 -11.296087 -4.471143 -4.200415 0.000000 0.000000 0.000000 23.660625 -1.333908 8.451481 0.066329 20.892050 0.061466 -6.913460 -3.735039 -9.163272 0.000000 0.000000 0.000000
